<mxfile host="app.diagrams.net" modified="2022-01-20T05:59:49.151Z" agent="5.0 (Macintosh; Intel Mac OS X 10_15_7) AppleWebKit/537.36 (KHTML, like Gecko) Chrome/96.0.4664.110 Safari/537.36" etag="a3uXWjYYexhhQ0zk0Z2n" version="16.1.0" type="github">
  <diagram id="qaCQK-qG3PNEPyWU5BEq" name="第 1 页">
    <mxGraphModel dx="1097" dy="581" grid="1" gridSize="10" guides="1" tooltips="1" connect="1" arrows="1" fold="1" page="1" pageScale="1" pageWidth="827" pageHeight="1169" background="#ffffff" math="0" shadow="0">
      <root>
        <mxCell id="0" />
        <mxCell id="1" parent="0" />
        <mxCell id="3CBixT1Uh_cgmrq8J1iF-1" value="&lt;font face=&quot;Comic Sans MS&quot; style=&quot;font-size: 14px&quot;&gt;0&lt;/font&gt;" style="rounded=0;whiteSpace=wrap;html=1;shadow=1;fillColor=#f5f5f5;fontColor=#333333;strokeColor=#666666;glass=0;opacity=0;" vertex="1" parent="1">
          <mxGeometry x="240" y="120" width="40" height="40" as="geometry" />
        </mxCell>
        <mxCell id="3CBixT1Uh_cgmrq8J1iF-2" value="&lt;font face=&quot;Comic Sans MS&quot; style=&quot;font-size: 14px&quot;&gt;1&lt;/font&gt;" style="rounded=0;whiteSpace=wrap;html=1;shadow=1;fillColor=#f5f5f5;fontColor=#333333;strokeColor=#666666;glass=0;opacity=0;" vertex="1" parent="1">
          <mxGeometry x="280" y="120" width="40" height="40" as="geometry" />
        </mxCell>
        <mxCell id="3CBixT1Uh_cgmrq8J1iF-3" value="&lt;font face=&quot;Comic Sans MS&quot; style=&quot;font-size: 14px&quot;&gt;2&lt;/font&gt;" style="rounded=0;whiteSpace=wrap;html=1;shadow=1;fillColor=#f5f5f5;fontColor=#333333;strokeColor=#666666;glass=0;opacity=0;" vertex="1" parent="1">
          <mxGeometry x="320" y="120" width="40" height="40" as="geometry" />
        </mxCell>
        <mxCell id="3CBixT1Uh_cgmrq8J1iF-4" value="&lt;font face=&quot;Comic Sans MS&quot;&gt;&lt;span style=&quot;font-size: 14px&quot;&gt;3&lt;/span&gt;&lt;/font&gt;" style="rounded=0;whiteSpace=wrap;html=1;shadow=1;fillColor=#f5f5f5;fontColor=#333333;strokeColor=#666666;glass=0;opacity=0;" vertex="1" parent="1">
          <mxGeometry x="360" y="120" width="40" height="40" as="geometry" />
        </mxCell>
        <mxCell id="3CBixT1Uh_cgmrq8J1iF-7" value="&lt;font face=&quot;Comic Sans MS&quot; style=&quot;font-size: 14px&quot;&gt;10&lt;/font&gt;" style="rounded=0;whiteSpace=wrap;html=1;shadow=1;fillColor=#f5f5f5;fontColor=#333333;strokeColor=#666666;glass=0;" vertex="1" parent="1">
          <mxGeometry x="240" y="160" width="40" height="40" as="geometry" />
        </mxCell>
        <mxCell id="3CBixT1Uh_cgmrq8J1iF-8" value="&lt;font face=&quot;Comic Sans MS&quot; style=&quot;font-size: 14px&quot;&gt;5&lt;/font&gt;" style="rounded=0;whiteSpace=wrap;html=1;shadow=1;fillColor=#f8cecc;strokeColor=#b85450;glass=0;" vertex="1" parent="1">
          <mxGeometry x="280" y="160" width="40" height="40" as="geometry" />
        </mxCell>
        <mxCell id="3CBixT1Uh_cgmrq8J1iF-9" value="&lt;font face=&quot;Comic Sans MS&quot; style=&quot;font-size: 14px&quot;&gt;2&lt;/font&gt;" style="rounded=0;whiteSpace=wrap;html=1;shadow=1;fillColor=#f5f5f5;fontColor=#333333;strokeColor=#666666;glass=0;" vertex="1" parent="1">
          <mxGeometry x="320" y="160" width="40" height="40" as="geometry" />
        </mxCell>
        <mxCell id="3CBixT1Uh_cgmrq8J1iF-10" value="&lt;font face=&quot;Comic Sans MS&quot; style=&quot;font-size: 14px&quot;&gt;6&lt;/font&gt;" style="rounded=0;whiteSpace=wrap;html=1;shadow=1;fillColor=#f5f5f5;strokeColor=#666666;glass=0;fontColor=#333333;" vertex="1" parent="1">
          <mxGeometry x="360" y="160" width="40" height="40" as="geometry" />
        </mxCell>
        <mxCell id="3CBixT1Uh_cgmrq8J1iF-13" value="k = 100" style="text;html=1;strokeColor=none;fillColor=none;align=center;verticalAlign=middle;whiteSpace=wrap;rounded=0;shadow=1;glass=0;fontFamily=Comic Sans MS;fontSize=14;opacity=0;" vertex="1" parent="1">
          <mxGeometry x="300" y="70" width="240" height="40" as="geometry" />
        </mxCell>
        <mxCell id="3CBixT1Uh_cgmrq8J1iF-14" value="" style="shape=curlyBracket;whiteSpace=wrap;html=1;rounded=1;flipH=1;shadow=1;glass=0;fontFamily=Comic Sans MS;fontSize=14;rotation=90;" vertex="1" parent="1">
          <mxGeometry x="275" y="170" width="10" height="80" as="geometry" />
        </mxCell>
        <mxCell id="3CBixT1Uh_cgmrq8J1iF-21" style="rounded=0;orthogonalLoop=1;jettySize=auto;html=1;exitX=0.25;exitY=1;exitDx=0;exitDy=0;entryX=0.5;entryY=0;entryDx=0;entryDy=0;fontFamily=Comic Sans MS;fontSize=14;" edge="1" parent="1" source="3CBixT1Uh_cgmrq8J1iF-22" target="3CBixT1Uh_cgmrq8J1iF-36">
          <mxGeometry relative="1" as="geometry" />
        </mxCell>
        <mxCell id="3CBixT1Uh_cgmrq8J1iF-22" value="&lt;font face=&quot;Comic Sans MS&quot; style=&quot;font-size: 14px&quot;&gt;10&lt;/font&gt;" style="rounded=0;whiteSpace=wrap;html=1;shadow=1;fillColor=#e1d5e7;strokeColor=#9673a6;glass=0;" vertex="1" parent="1">
          <mxGeometry x="456" y="160" width="40" height="40" as="geometry" />
        </mxCell>
        <mxCell id="3CBixT1Uh_cgmrq8J1iF-23" value="&lt;font face=&quot;Comic Sans MS&quot; style=&quot;font-size: 14px&quot;&gt;5&lt;/font&gt;" style="rounded=0;whiteSpace=wrap;html=1;shadow=1;fillColor=#f5f5f5;fontColor=#333333;strokeColor=#666666;glass=0;" vertex="1" parent="1">
          <mxGeometry x="496" y="160" width="40" height="40" as="geometry" />
        </mxCell>
        <mxCell id="3CBixT1Uh_cgmrq8J1iF-24" value="&lt;font face=&quot;Comic Sans MS&quot; style=&quot;font-size: 14px&quot;&gt;2&lt;/font&gt;" style="rounded=0;whiteSpace=wrap;html=1;shadow=1;fillColor=#f8cecc;strokeColor=#b85450;glass=0;" vertex="1" parent="1">
          <mxGeometry x="536" y="160" width="40" height="40" as="geometry" />
        </mxCell>
        <mxCell id="3CBixT1Uh_cgmrq8J1iF-25" value="&lt;font face=&quot;Comic Sans MS&quot; style=&quot;font-size: 14px&quot;&gt;6&lt;/font&gt;" style="rounded=0;whiteSpace=wrap;html=1;shadow=1;fillColor=#f5f5f5;strokeColor=#666666;glass=0;fontColor=#333333;" vertex="1" parent="1">
          <mxGeometry x="576" y="160" width="40" height="40" as="geometry" />
        </mxCell>
        <mxCell id="3CBixT1Uh_cgmrq8J1iF-28" value="" style="shape=curlyBracket;whiteSpace=wrap;html=1;rounded=1;flipH=1;shadow=1;glass=0;fontFamily=Comic Sans MS;fontSize=14;rotation=90;" vertex="1" parent="1">
          <mxGeometry x="531" y="170" width="10" height="80" as="geometry" />
        </mxCell>
        <mxCell id="3CBixT1Uh_cgmrq8J1iF-29" value="&lt;font style=&quot;font-size: 12px&quot;&gt;每一次循环结束后滑动窗口元素乘机小于k&lt;/font&gt;" style="text;html=1;strokeColor=none;fillColor=none;align=center;verticalAlign=middle;whiteSpace=wrap;rounded=0;shadow=1;glass=0;fontFamily=Comic Sans MS;fontSize=14;" vertex="1" parent="1">
          <mxGeometry x="290" y="90" width="260" height="40" as="geometry" />
        </mxCell>
        <mxCell id="3CBixT1Uh_cgmrq8J1iF-30" value="滑动窗口 sum = 50" style="text;html=1;strokeColor=none;fillColor=none;align=center;verticalAlign=middle;whiteSpace=wrap;rounded=0;shadow=1;glass=0;fontFamily=Comic Sans MS;fontSize=14;" vertex="1" parent="1">
          <mxGeometry x="225" y="220" width="125" height="20" as="geometry" />
        </mxCell>
        <mxCell id="3CBixT1Uh_cgmrq8J1iF-31" value="滑动窗口&amp;nbsp;" style="text;html=1;strokeColor=none;fillColor=none;align=center;verticalAlign=middle;whiteSpace=wrap;rounded=0;shadow=1;glass=0;fontFamily=Comic Sans MS;fontSize=14;" vertex="1" parent="1">
          <mxGeometry x="476" y="220" width="120" height="20" as="geometry" />
        </mxCell>
        <mxCell id="3CBixT1Uh_cgmrq8J1iF-36" value="从窗口中删除" style="text;html=1;strokeColor=none;fillColor=none;align=center;verticalAlign=middle;whiteSpace=wrap;rounded=0;shadow=1;glass=0;fontFamily=Comic Sans MS;fontSize=14;" vertex="1" parent="1">
          <mxGeometry x="401" y="220" width="90" height="30" as="geometry" />
        </mxCell>
        <mxCell id="3CBixT1Uh_cgmrq8J1iF-37" value="&lt;font style=&quot;font-size: 12px&quot;&gt;right&lt;/font&gt;" style="text;html=1;strokeColor=none;fillColor=none;align=center;verticalAlign=middle;whiteSpace=wrap;rounded=0;shadow=1;glass=0;fontFamily=Comic Sans MS;fontSize=12;" vertex="1" parent="1">
          <mxGeometry x="290" y="180" width="30" height="20" as="geometry" />
        </mxCell>
        <mxCell id="3CBixT1Uh_cgmrq8J1iF-38" value="&lt;font style=&quot;font-size: 12px&quot;&gt;left&lt;/font&gt;" style="text;html=1;strokeColor=none;fillColor=none;align=center;verticalAlign=middle;whiteSpace=wrap;rounded=0;shadow=1;glass=0;fontFamily=Comic Sans MS;fontSize=12;" vertex="1" parent="1">
          <mxGeometry x="240" y="180" width="30" height="20" as="geometry" />
        </mxCell>
        <mxCell id="3CBixT1Uh_cgmrq8J1iF-39" value="&lt;font style=&quot;font-size: 12px&quot;&gt;right&lt;/font&gt;" style="text;html=1;strokeColor=none;fillColor=none;align=center;verticalAlign=middle;whiteSpace=wrap;rounded=0;shadow=1;glass=0;fontFamily=Comic Sans MS;fontSize=12;" vertex="1" parent="1">
          <mxGeometry x="546" y="180" width="30" height="20" as="geometry" />
        </mxCell>
        <mxCell id="3CBixT1Uh_cgmrq8J1iF-40" value="&lt;font style=&quot;font-size: 12px&quot;&gt;left&lt;/font&gt;" style="text;html=1;strokeColor=none;fillColor=none;align=center;verticalAlign=middle;whiteSpace=wrap;rounded=0;shadow=1;glass=0;fontFamily=Comic Sans MS;fontSize=12;" vertex="1" parent="1">
          <mxGeometry x="496" y="180" width="30" height="20" as="geometry" />
        </mxCell>
        <mxCell id="3CBixT1Uh_cgmrq8J1iF-60" value="&lt;font face=&quot;Comic Sans MS&quot; style=&quot;font-size: 14px&quot;&gt;10&lt;/font&gt;" style="rounded=0;whiteSpace=wrap;html=1;shadow=1;fillColor=#e1d5e7;strokeColor=#9673a6;glass=0;" vertex="1" parent="1">
          <mxGeometry x="345" y="400" width="40" height="40" as="geometry" />
        </mxCell>
        <mxCell id="3CBixT1Uh_cgmrq8J1iF-61" value="&lt;font face=&quot;Comic Sans MS&quot; style=&quot;font-size: 14px&quot;&gt;5&lt;/font&gt;" style="rounded=0;whiteSpace=wrap;html=1;shadow=1;fillColor=#f5f5f5;fontColor=#333333;strokeColor=#666666;glass=0;" vertex="1" parent="1">
          <mxGeometry x="385" y="400" width="40" height="40" as="geometry" />
        </mxCell>
        <mxCell id="3CBixT1Uh_cgmrq8J1iF-62" value="&lt;font face=&quot;Comic Sans MS&quot; style=&quot;font-size: 14px&quot;&gt;2&lt;/font&gt;" style="rounded=0;whiteSpace=wrap;html=1;shadow=1;fillColor=#f5f5f5;strokeColor=#666666;glass=0;fontColor=#333333;" vertex="1" parent="1">
          <mxGeometry x="425" y="400" width="40" height="40" as="geometry" />
        </mxCell>
        <mxCell id="3CBixT1Uh_cgmrq8J1iF-63" value="&lt;font face=&quot;Comic Sans MS&quot; style=&quot;font-size: 14px&quot;&gt;6&lt;/font&gt;" style="rounded=0;whiteSpace=wrap;html=1;shadow=1;fillColor=#f8cecc;strokeColor=#b85450;glass=0;" vertex="1" parent="1">
          <mxGeometry x="465" y="400" width="40" height="40" as="geometry" />
        </mxCell>
        <mxCell id="3CBixT1Uh_cgmrq8J1iF-64" value="" style="shape=curlyBracket;whiteSpace=wrap;html=1;rounded=1;flipH=1;shadow=1;glass=0;fontFamily=Comic Sans MS;fontSize=14;rotation=90;" vertex="1" parent="1">
          <mxGeometry x="440" y="390" width="10" height="120" as="geometry" />
        </mxCell>
        <mxCell id="3CBixT1Uh_cgmrq8J1iF-65" value="滑动窗口&amp;nbsp;&lt;span style=&quot;font-family: &amp;#34;helvetica&amp;#34; ; font-size: 12px&quot;&gt;sum = 60&lt;/span&gt;" style="text;html=1;strokeColor=none;fillColor=none;align=center;verticalAlign=middle;whiteSpace=wrap;rounded=0;shadow=1;glass=0;fontFamily=Comic Sans MS;fontSize=14;" vertex="1" parent="1">
          <mxGeometry x="385" y="460" width="120" height="20" as="geometry" />
        </mxCell>
        <mxCell id="3CBixT1Uh_cgmrq8J1iF-67" value="&lt;font style=&quot;font-size: 12px&quot;&gt;right&lt;/font&gt;" style="text;html=1;strokeColor=none;fillColor=none;align=center;verticalAlign=middle;whiteSpace=wrap;rounded=0;shadow=1;glass=0;fontFamily=Comic Sans MS;fontSize=12;" vertex="1" parent="1">
          <mxGeometry x="475" y="420" width="30" height="20" as="geometry" />
        </mxCell>
        <mxCell id="3CBixT1Uh_cgmrq8J1iF-68" value="&lt;font style=&quot;font-size: 12px&quot;&gt;left&lt;/font&gt;" style="text;html=1;strokeColor=none;fillColor=none;align=center;verticalAlign=middle;whiteSpace=wrap;rounded=0;shadow=1;glass=0;fontFamily=Comic Sans MS;fontSize=12;" vertex="1" parent="1">
          <mxGeometry x="385" y="420" width="30" height="20" as="geometry" />
        </mxCell>
        <mxCell id="3CBixT1Uh_cgmrq8J1iF-69" value="&lt;font face=&quot;Comic Sans MS&quot;&gt;&lt;span style=&quot;font-size: 14px&quot;&gt;3&lt;/span&gt;&lt;/font&gt;" style="rounded=0;whiteSpace=wrap;html=1;shadow=1;fillColor=#f5f5f5;fontColor=#333333;strokeColor=#666666;glass=0;opacity=0;" vertex="1" parent="1">
          <mxGeometry x="465" y="360" width="40" height="40" as="geometry" />
        </mxCell>
        <mxCell id="3CBixT1Uh_cgmrq8J1iF-70" value="&lt;font face=&quot;Comic Sans MS&quot; style=&quot;font-size: 14px&quot;&gt;1&lt;/font&gt;" style="rounded=0;whiteSpace=wrap;html=1;shadow=1;fillColor=#f5f5f5;fontColor=#333333;strokeColor=#666666;glass=0;opacity=0;" vertex="1" parent="1">
          <mxGeometry x="385" y="360" width="40" height="40" as="geometry" />
        </mxCell>
        <mxCell id="3CBixT1Uh_cgmrq8J1iF-71" value="&lt;span style=&quot;font-size: 12px&quot;&gt;right - left + 1 = 3&lt;br&gt;新增子数组[6], [2, 6], [5, 2, 6]&lt;br&gt;&lt;/span&gt;" style="text;html=1;strokeColor=none;fillColor=none;align=center;verticalAlign=middle;whiteSpace=wrap;rounded=0;shadow=1;glass=0;fontFamily=Comic Sans MS;fontSize=14;" vertex="1" parent="1">
          <mxGeometry x="320" y="320" width="224" height="40" as="geometry" />
        </mxCell>
      </root>
    </mxGraphModel>
  </diagram>
</mxfile>
